<svg xmlns="http://www.w3.org/2000/svg" viewBox="0 0 1200 1600">
  <defs>
    <radialGradient id="g" cx="50%" cy="22%" r="75%">
      <stop stop-color="#ffc0cb"/>
      <stop offset=".45" stop-color="#ff69b4"/>
      <stop offset="1" stop-color="#130813"/>
    </radialGradient>
    <linearGradient id="chrome" x1="0" x2="1">
      <stop stop-color="#fff"/>
      <stop offset=".18" stop-color="#ffc0cb"/>
      <stop offset=".42" stop-color="#e9edf6"/>
      <stop offset=".66" stop-color="#ff69b4"/>
      <stop offset="1" stop-color="#fff"/>
    </linearGradient>
  </defs>
  <rect width="1200" height="1600" fill="url(#g)"/>
  <circle cx="600" cy="450" r="280" fill="#fff" opacity=".11"/>
  <rect x="120" y="190" width="960" height="1220" rx="60" fill="#fff" opacity=".08" stroke="#fff" stroke-opacity=".35" stroke-width="4"/>
  <text x="600" y="370" text-anchor="middle" font-family="Arial Black,Arial" font-size="150" fill="url(#chrome)">ENZO</text>
  <text x="600" y="520" text-anchor="middle" font-family="Arial Black,Arial" font-size="270" fill="url(#chrome)">22</text>
  <text x="600" y="650" text-anchor="middle" font-family="Arial" font-size="58" fill="#fff">NOVEMBER 12</text>
  <text x="600" y="1140" text-anchor="middle" font-family="Arial Black,Arial" font-size="82" fill="#fff">BIRTHDAY NIGHT</text>
  <text x="600" y="1235" text-anchor="middle" font-family="Arial" font-size="46" fill="#ffd8ec">pink chrome fantasy</text>
  <g fill="#fff">
    <path d="M218 270l18 40 42 7-31 29 7 42-36-21-37 21 8-42-31-29 42-7z"/>
    <path d="M967 285l14 31 34 5-25 24 6 34-29-17-30 17 6-34-25-24 34-5z"/>
    <path d="M238 1298l12 27 29 4-21 20 5 29-25-14-25 14 5-29-21-20 29-4z"/>
  </g>
</svg>
